<svg width="18" height="20" viewBox="0 0 18 20" fill="none" xmlns="http://www.w3.org/2000/svg">
<path d="M16.8995 0.773288L12.8528 0.769287C8.30648 0.769287 5.36842 2.62688 5.36842 5.502V7.68411H1.29964C0.948044 7.68411 0.66333 7.85976 0.66333 8.07643V11.238C0.66333 11.4548 0.94837 11.6302 1.29964 11.6302H5.36842V19.608C5.36842 19.8246 5.65314 20.0001 6.00473 20.0001H11.3133C11.6649 20.0001 11.9497 19.8244 11.9497 19.608V11.6302H16.707C17.0586 11.6302 17.3433 11.4548 17.3433 11.238L17.3453 8.07643C17.3453 7.9724 17.2781 7.87277 17.1589 7.79914C17.0398 7.72552 16.8775 7.68411 16.7086 7.68411H11.9497V5.83431C11.9497 4.94523 12.2935 4.49388 14.1728 4.49388L16.8989 4.49328C17.2501 4.49328 17.5349 4.31762 17.5349 4.10116V1.16541C17.5349 0.949145 17.2505 0.773689 16.8995 0.773288Z" fill="#537B97"/>
</svg>
