<svg width="26" height="17" viewBox="0 0 26 17" fill="none" xmlns="http://www.w3.org/2000/svg">
<path d="M25.6152 2.40797C24.6271 2.73599 23.6386 2.94084 22.6509 3.02312C23.7665 2.50654 24.5212 1.77674 24.9144 0.833781C23.8937 1.30108 22.8048 1.62079 21.6468 1.79306C20.6265 0.956691 19.3729 0.53833 17.885 0.53833C16.4613 0.53833 15.2475 0.925716 14.2429 1.70065C13.2389 2.47555 12.7369 3.41232 12.7369 4.51106C12.7369 4.8062 12.7793 5.10971 12.8644 5.42127C10.7604 5.33929 8.78675 4.93136 6.94305 4.19747C5.09945 3.46349 3.5348 2.48564 2.24914 1.2639C1.78159 1.87875 1.54774 2.54716 1.54774 3.26873C1.54774 3.94932 1.7549 4.5808 2.16953 5.163C2.58387 5.74511 3.14185 6.21655 3.84319 6.57739C3.01423 6.55275 2.23858 6.38461 1.51614 6.073V6.1222C1.51614 7.08166 1.90664 7.92403 2.68754 8.64994C3.46854 9.37578 4.45416 9.83265 5.64414 10.0213C5.19781 10.1114 4.74613 10.1565 4.28929 10.1565C3.99174 10.1565 3.66762 10.1361 3.31703 10.0954C3.6464 10.8906 4.25211 11.5443 5.13394 12.0571C6.01594 12.5695 7.01478 12.8337 8.13053 12.8505C6.26046 13.9819 4.13002 14.5476 1.73922 14.5476C1.28223 14.5476 0.867942 14.5315 0.495972 14.4986C2.88684 15.6874 5.52199 16.2819 8.40162 16.2819C10.2292 16.2819 11.9453 16.0586 13.5493 15.6116C15.1542 15.1649 16.5247 14.5662 17.6618 13.8157C18.7986 13.0655 19.7789 12.2025 20.6024 11.2267C21.4258 10.2509 22.0392 9.23214 22.4434 8.17028C22.847 7.1082 23.0489 6.04449 23.0489 4.97831C23.0489 4.74869 23.0436 4.57658 23.0328 4.46172C24.0426 3.8962 24.9032 3.21138 25.6152 2.40797Z" fill="#537B97"/>
</svg>
