<svg width="30" height="19" viewBox="0 0 30 19" fill="none" xmlns="http://www.w3.org/2000/svg">
<path d="M29.4174 16.7473C29.3817 16.6664 29.3482 16.5993 29.3172 16.5455C28.8041 15.5765 27.8235 14.3872 26.3762 12.9771L26.3456 12.9448L26.3303 12.929L26.3148 12.9128H26.2993C25.6423 12.2562 25.2263 11.8147 25.0521 11.5887C24.7335 11.1581 24.6621 10.7223 24.8363 10.2807C24.9593 9.94703 25.4217 9.24242 26.2221 8.16589C26.6431 7.59535 26.9765 7.1381 27.2229 6.7936C28.999 4.31786 29.7689 2.73582 29.5326 2.04689L29.441 1.88589C29.3793 1.78897 29.2202 1.7003 28.9638 1.61943C28.7069 1.53874 28.3785 1.52539 27.9781 1.57917L23.5436 1.61129C23.4717 1.5846 23.3691 1.58709 23.2356 1.61943C23.102 1.65178 23.0352 1.66801 23.0352 1.66801L22.958 1.70844L22.8968 1.75702C22.8455 1.78914 22.789 1.84563 22.7273 1.92638C22.666 2.00685 22.6148 2.10129 22.5737 2.2089C22.0909 3.51129 21.542 4.72219 20.926 5.84154C20.5461 6.50899 20.1972 7.08743 19.8787 7.57721C19.5605 8.06682 19.2936 8.42754 19.0782 8.65877C18.8624 8.89023 18.6678 9.07566 18.4929 9.21573C18.3184 9.35586 18.1852 9.41506 18.0928 9.3934C18.0003 9.37176 17.9132 9.35027 17.8307 9.32878C17.6871 9.23184 17.5717 9.10004 17.4846 8.93321C17.397 8.76639 17.3382 8.55643 17.3074 8.30347C17.2766 8.05035 17.2586 7.83264 17.2534 7.64959C17.2486 7.46677 17.2508 7.20817 17.2613 6.87452C17.2719 6.54071 17.2767 6.31485 17.2767 6.19644C17.2767 5.78737 17.2843 5.34339 17.2996 4.86442C17.3151 4.38543 17.3277 4.00594 17.3382 3.72636C17.3487 3.44648 17.3535 3.1504 17.3535 2.83825C17.3535 2.52609 17.3354 2.28129 17.2996 2.10361C17.2642 1.92616 17.21 1.75391 17.1384 1.58691C17.0664 1.4201 16.9609 1.29105 16.8227 1.19944C16.6841 1.10794 16.5119 1.03533 16.3069 0.981384C15.7627 0.85228 15.0698 0.782442 14.2279 0.771584C12.3187 0.750096 11.0919 0.879367 10.5478 1.15923C10.3322 1.27748 10.1372 1.43904 9.96275 1.64341C9.77792 1.88029 9.75215 2.00957 9.88557 2.03083C10.5016 2.12759 10.9377 2.35905 11.1943 2.72497L11.2868 2.91889C11.3588 3.05879 11.4306 3.30648 11.5025 3.66161C11.5743 4.01673 11.6206 4.40959 11.641 4.83992C11.6922 5.62579 11.6922 6.29851 11.641 6.85812C11.5896 7.41796 11.5411 7.85378 11.4947 8.16594C11.4484 8.4781 11.3792 8.73104 11.2868 8.92472C11.1943 9.11847 11.1328 9.23688 11.102 9.27986C11.0712 9.32284 11.0455 9.34993 11.0251 9.36055C10.8917 9.41416 10.7529 9.44148 10.6093 9.44148C10.4654 9.44148 10.291 9.36603 10.0858 9.21528C9.88056 9.06452 9.66758 8.85743 9.44682 8.59368C9.22608 8.32989 8.97714 7.96123 8.69987 7.48769C8.42282 7.01414 8.13536 6.45447 7.83765 5.80868L7.59134 5.34033C7.43736 5.03903 7.22703 4.60033 6.96012 4.02459C6.69305 3.44864 6.45699 2.89151 6.25178 2.35332C6.16974 2.1273 6.0465 1.95522 5.88229 1.83681L5.80522 1.78823C5.75398 1.74525 5.67174 1.69962 5.55891 1.65099C5.44592 1.60241 5.32803 1.56758 5.20473 1.54614L0.985666 1.57826C0.554532 1.57826 0.262004 1.68067 0.107972 1.88521L0.0463278 1.98197C0.0155325 2.03586 0 2.12193 0 2.2404C0 2.35881 0.0307953 2.50415 0.0924399 2.67622C0.708346 4.19403 1.37813 5.65781 2.10179 7.0678C2.82546 8.47782 3.45431 9.61361 3.98796 10.4742C4.52173 11.3354 5.06581 12.1482 5.62018 12.9121C6.17454 13.6764 6.5415 14.1662 6.72105 14.3814C6.9008 14.5969 7.04198 14.7581 7.14462 14.8657L7.52965 15.2531C7.77602 15.5115 8.13778 15.8209 8.61514 16.1814C9.0926 16.5422 9.62119 16.8973 10.2012 17.2474C10.7813 17.597 11.4561 17.8821 12.2261 18.1028C12.996 18.3235 13.7453 18.4122 14.4742 18.3694H16.2451C16.6041 18.3369 16.8762 18.2186 17.0612 18.0142L17.1224 17.9333C17.1637 17.8689 17.2023 17.7693 17.2378 17.6348C17.2738 17.5004 17.2917 17.3522 17.2917 17.1909C17.2812 16.7281 17.3148 16.311 17.3917 15.9398C17.4684 15.5686 17.5558 15.2887 17.6537 15.1003C17.7515 14.912 17.8618 14.7531 17.9847 14.6242C18.1077 14.4951 18.1954 14.4169 18.2468 14.39C18.298 14.3629 18.3388 14.3445 18.3696 14.3335C18.6159 14.2475 18.9059 14.3308 19.2398 14.584C19.5735 14.8369 19.8866 15.1492 20.1792 15.5204C20.4718 15.892 20.8233 16.3089 21.2338 16.7715C21.6448 17.2345 22.0039 17.5785 22.3117 17.8049L22.6195 17.9987C22.8252 18.1279 23.0921 18.2463 23.4207 18.3539C23.7487 18.4615 24.036 18.4885 24.2826 18.4347L28.2244 18.3702C28.6144 18.3702 28.9176 18.3025 29.1328 18.1682C29.3485 18.0336 29.4766 17.8854 29.5179 17.7243C29.5591 17.5629 29.5613 17.3798 29.5257 17.175C29.4892 16.9708 29.4532 16.828 29.4174 16.7473Z" fill="#537B97"/>
</svg>
