<svg width="29" height="20" viewBox="0 0 29 20" fill="none" xmlns="http://www.w3.org/2000/svg">
<path d="M27.689 1.71686C26.6583 0.49742 24.7552 0 21.121 0H7.92835C4.21083 0 2.27557 0.529505 1.24872 1.82778C0.247559 3.09361 0.247559 4.9587 0.247559 7.54003V12.4601C0.247559 17.4609 1.43542 20 7.92835 20H21.121C24.2727 20 26.0192 19.5611 27.149 18.4849C28.3077 17.3813 28.802 15.5795 28.802 12.4601V7.54003C28.802 4.8178 28.7246 2.94171 27.689 1.71686ZM18.5797 10.6793L12.5889 13.7954C12.455 13.865 12.3085 13.8996 12.1622 13.8996C11.9966 13.8996 11.8314 13.8552 11.685 13.767C11.4094 13.6008 11.2411 13.3035 11.2411 12.9829V6.77071C11.2411 6.45059 11.4089 6.15357 11.684 5.98727C11.9591 5.82099 12.3013 5.80962 12.5868 5.95721L18.5776 9.05319C18.8823 9.21069 19.0737 9.52385 19.0741 9.86551C19.0746 10.2075 18.884 10.5211 18.5797 10.6793Z" fill="#537B97"/>
</svg>
